<svg width="80" height="16" viewBox="0 0 80 16" fill="none" xmlns="http://www.w3.org/2000/svg">
<path d="M53.5868 12.4052L53.4211 10.9205C55.0438 10.4995 56.747 10.4995 58.3697 10.9205L58.204 12.4052C58.1848 12.5793 58.2237 12.7548 58.3147 12.9044C58.4058 13.0541 58.5438 13.1693 58.7072 13.2322L61.1516 14.1732C61.327 14.2408 61.5206 14.2439 61.6979 14.1819C61.8753 14.12 62.0249 13.9971 62.1201 13.8351L63.1788 12.029C63.2785 11.8609 63.3125 11.6618 63.2744 11.47C63.2362 11.2783 63.1285 11.1074 62.972 10.9902C60.9323 9.45363 58.4478 8.62289 55.8941 8.62354C53.3405 8.62422 50.8564 9.45628 48.8175 10.994C48.661 11.1111 48.5534 11.282 48.5152 11.4738C48.4771 11.6655 48.5111 11.8646 48.6108 12.0328L49.6695 13.8388C49.7648 14.0005 49.9143 14.1233 50.0915 14.185C50.2687 14.2469 50.4622 14.2438 50.6373 14.1764L53.0829 13.2316C53.2464 13.1688 53.3845 13.0537 53.4756 12.9042C53.5668 12.7547 53.6059 12.5793 53.5868 12.4052Z" stroke="#333333" stroke-linecap="round" stroke-linejoin="round"/>
<path fill-rule="evenodd" clip-rule="evenodd" d="M51 1.44096C51 1.19743 51.1974 1 51.441 1H53.9354C54.179 1 54.3764 1.19743 54.3764 1.44096C54.3764 1.6845 54.179 1.88192 53.9354 1.88192H52.5055L55.8708 5.24723C56.0431 5.41944 56.0171 5.68135 55.8448 5.85356C55.6726 6.02576 55.4194 6.04305 55.2472 5.87085L51.8819 2.50554V3.93542C51.8819 4.17896 51.6845 4.37639 51.441 4.37638C51.1974 4.37639 51 4.17896 51 3.93542V1.44096Z" fill="#FF0F0F"/>
<path fill-rule="evenodd" clip-rule="evenodd" d="M59.8448 1.14645C60.04 1.34171 60.04 1.6583 59.8448 1.85356L55.8448 5.85356C55.6495 6.04882 55.3329 5.86841 55.1376 5.67315C54.9424 5.47789 54.9424 5.34171 55.1376 5.14645L59.1376 1.14645C59.3329 0.951185 59.6495 0.951185 59.8448 1.14645Z" fill="#FF0F0F"/>
<path d="M68 5.5L69.5 1.5" stroke="#333333" stroke-linecap="round" stroke-linejoin="round"/>
<path d="M76 5.5L74.5 1.5" stroke="#333333" stroke-linecap="round" stroke-linejoin="round"/>
<path d="M78.5 5.5H65.5V8.5H78.5V5.5Z" stroke="#333333" stroke-linecap="round" stroke-linejoin="round"/>
<path d="M77.5 8.5V13C77.5 13.3978 77.342 13.7794 77.0607 14.0607C76.7794 14.342 76.3978 14.5 76 14.5H68C67.6022 14.5 67.2206 14.342 66.9393 14.0607C66.658 13.7794 66.5 13.3978 66.5 13V8.5" stroke="#333333" stroke-linecap="round" stroke-linejoin="round"/>
<g clip-path="url(#clip0_46_3388)">
<path fill-rule="evenodd" clip-rule="evenodd" d="M24 16C28.4183 16 32 12.4183 32 8C32 3.58172 28.4183 0 24 0C19.5817 0 16 3.58172 16 8C16 12.4183 19.5817 16 24 16ZM27.7892 11.2651H29.1352C29.2722 11.2651 29.4012 11.2001 29.4002 10.9721C29.4002 10.6701 29.0062 10.1301 28.4022 9.48912C28.2542 9.29202 28.0503 9.08488 27.883 8.91499C27.771 8.80129 27.6755 8.70427 27.6242 8.63812C27.4412 8.44512 27.4962 8.33512 27.6242 8.13412C27.6242 8.13412 29.0072 6.18412 29.1442 5.54312C29.1902 5.31412 29.0892 5.18612 28.8512 5.18612H27.6522C27.3772 5.18612 27.2762 5.30512 27.1942 5.47912C27.1942 5.47912 26.5452 6.86012 25.7562 7.73112C25.5032 8.01212 25.3742 8.09712 25.2342 8.09712C25.1212 8.09712 25.0692 8.00312 25.0692 7.74912V5.52412C25.0692 5.21312 25.0322 5.12112 24.7762 5.12112H22.8532C22.7072 5.12112 22.6152 5.20612 22.6152 5.32212C22.6152 5.43284 22.6793 5.51129 22.7591 5.6089C22.8904 5.76958 23.0642 5.98217 23.0642 6.47612V8.11412C23.0642 8.44412 23.0462 8.57212 22.8902 8.57212C22.4782 8.57212 21.4982 7.15212 20.9492 5.54112C20.8392 5.21212 20.7202 5.12012 20.4092 5.12012H19.2102C19.0362 5.12012 18.9082 5.23912 18.9082 5.41312C18.9082 5.73412 19.2842 7.21712 20.7582 9.20412C21.7472 10.5411 23.0472 11.2641 24.2192 11.2641C24.9332 11.2641 25.1072 11.1451 25.1072 10.8431V9.81812C25.1072 9.56212 25.2072 9.45212 25.3542 9.45212C25.5182 9.45212 25.8092 9.50512 26.4892 10.1751C26.7662 10.4398 26.9546 10.6513 27.1002 10.8149C27.3784 11.1273 27.5011 11.2651 27.7892 11.2651Z" fill="#4D76A1"/>
</g>
<path d="M33.5 5L40 9L46.5 5" stroke="#333333" stroke-linecap="round" stroke-linejoin="round"/>
<path d="M45 13.5H35C34.6022 13.5 34.2206 13.342 33.9393 13.0607C33.658 12.7794 33.5 12.3978 33.5 12V4C33.5 3.60218 33.658 3.22064 33.9393 2.93934C34.2206 2.65804 34.6022 2.5 35 2.5H45C45.3978 2.5 45.7794 2.65804 46.0607 2.93934C46.342 3.22064 46.5 3.60218 46.5 4V12C46.5 12.3978 46.342 12.7794 46.0607 13.0607C45.7794 13.342 45.3978 13.5 45 13.5Z" stroke="#333333" stroke-linecap="round" stroke-linejoin="round"/>
<g clip-path="url(#clip1_46_3388)">
<path d="M15.9678 1.68422C15.9552 1.62517 15.9271 1.57057 15.8863 1.52608C15.8455 1.48158 15.7935 1.44883 15.7358 1.43122C15.5255 1.3893 15.3079 1.40484 15.1058 1.47622C15.1058 1.47622 1.08676 6.51422 0.285764 7.07222C0.113764 7.19322 0.0557637 7.26222 0.0267637 7.34422C-0.111236 7.74422 0.319764 7.91722 0.319764 7.91722L3.93276 9.09422C3.99377 9.10522 4.05652 9.10145 4.11576 9.08322C4.93776 8.56422 12.3858 3.86122 12.8158 3.70322C12.8838 3.68322 12.9338 3.70322 12.9158 3.75222C12.7438 4.35222 6.30976 10.0712 6.27476 10.1062C6.25769 10.1205 6.24432 10.1387 6.23578 10.1592C6.22725 10.1798 6.22381 10.2021 6.22576 10.2242L5.88876 13.7522C5.88876 13.7522 5.74676 14.8522 6.84476 13.7522C7.62376 12.9732 8.37176 12.3272 8.74476 12.0142C9.98676 12.8722 11.3238 13.8202 11.9008 14.3142C11.9974 14.4083 12.112 14.4819 12.2378 14.5305C12.3636 14.5792 12.498 14.6018 12.6328 14.5972C12.7987 14.5767 12.9546 14.5062 13.0796 14.3952C13.2046 14.2841 13.2929 14.1376 13.3328 13.9752C13.3328 13.9752 15.8938 3.70022 15.9788 2.31722C15.9868 2.18222 15.9998 2.10022 15.9998 2.00022C16.0034 1.89392 15.9927 1.78762 15.9678 1.68422Z" fill="#2CA4D7"/>
</g>
<defs>
<clipPath id="clip0_46_3388">
<rect width="16" height="16" fill="white" transform="translate(16)"/>
</clipPath>
<clipPath id="clip1_46_3388">
<rect width="16" height="16" fill="white"/>
</clipPath>
</defs>
</svg>
